<?xml version="1.0" encoding="UTF-8" standalone="no"?>
<?xml-stylesheet href="style.css" type="text/css"?>
<!DOCTYPE svg PUBLIC "-//W3C//DTD SVG 1.1//EN"
 "http://www.w3.org/Graphics/SVG/1.1/DTD/svg11.dtd">
<!-- Generated by graphviz version 9.0.0 (20230911.1827)
 -->
<!-- Pages: 1 -->
<svg width="1034pt" height="859pt"
 viewBox="0.00 0.00 1033.94 858.91" xmlns="http://www.w3.org/2000/svg" xmlns:xlink="http://www.w3.org/1999/xlink">
<g id="graph0" class="graph" transform="scale(1 1) rotate(0) translate(4 854.91)">
<polygon fill="white" stroke="none" points="-4,4 -4,-854.91 1029.94,-854.91 1029.94,4 -4,4"/>
<!-- PARTICIPANT -->
<g id="node1" class="node">
<title>PARTICIPANT</title>
<polygon fill="#f3b365" stroke="black" points="498.2,-846.91 404.95,-846.91 404.95,-810.91 498.2,-810.91 498.2,-846.91"/>
<polygon fill="none" stroke="black" points="502.2,-850.91 400.95,-850.91 400.95,-806.91 502.2,-806.91 502.2,-850.91"/>
<text text-anchor="middle" x="451.57" y="-823.89" font-family="Helvetica,sans-Serif" font-size="12.00">PARTICIPANT</text>
</g>
<!-- COMPETES_FOR -->
<g id="node15" class="node">
<title>COMPETES_FOR</title>
<polygon fill="#f3b365" stroke="black" points="266.57,-758.16 165.76,-740.16 266.57,-722.16 367.38,-740.16 266.57,-758.16"/>
<text text-anchor="middle" x="266.57" y="-735.14" font-family="Helvetica,sans-Serif" font-size="12.00">COMPETES_FOR</text>
</g>
<!-- PARTICIPANT&#45;&#45;COMPETES_FOR -->
<g id="edge12" class="edge">
<title>PARTICIPANT&#45;&#45;COMPETES_FOR</title>
<path fill="none" stroke="black" d="M405.84,-806.47C370.53,-789.91 322.88,-767.57 293.47,-753.77"/>
<text text-anchor="middle" x="374.95" y="-777.51" font-family="Helvetica,sans-Serif" font-size="12.00">0:N</text>
</g>
<!-- COACHES -->
<g id="node16" class="node">
<title>COACHES</title>
<polygon fill="#f3b365" stroke="black" points="451.57,-758.16 385.16,-740.16 451.57,-722.16 517.98,-740.16 451.57,-758.16"/>
<text text-anchor="middle" x="451.57" y="-735.14" font-family="Helvetica,sans-Serif" font-size="12.00">COACHES</text>
</g>
<!-- PARTICIPANT&#45;&#45;COACHES -->
<g id="edge14" class="edge">
<title>PARTICIPANT&#45;&#45;COACHES</title>
<path fill="none" stroke="black" d="M451.57,-806.47C451.57,-791.72 451.57,-772.37 451.57,-758.57"/>
<text text-anchor="middle" x="459.82" y="-777.51" font-family="Helvetica,sans-Serif" font-size="12.00">0:1</text>
</g>
<!-- COUNTRY -->
<g id="node2" class="node">
<title>COUNTRY</title>
<polygon fill="#f3b365" stroke="black" points="280.57,-464.5 204.57,-464.5 204.57,-428.5 280.57,-428.5 280.57,-464.5"/>
<text text-anchor="middle" x="242.57" y="-441.47" font-family="Helvetica,sans-Serif" font-size="12.00">COUNTRY</text>
</g>
<!-- CountryCode -->
<g id="node3" class="node">
<title>CountryCode</title>
<ellipse fill="#f3b365" stroke="black" cx="115.57" cy="-357.5" rx="53.39" ry="18"/>
<text text-anchor="start" x="79.95" y="-353.47" font-family="Helvetica,sans-Serif" text-decoration="underline" font-size="12.00">CountryCode</text>
</g>
<!-- COUNTRY&#45;&#45;CountryCode -->
<g id="edge1" class="edge">
<title>COUNTRY&#45;&#45;CountryCode</title>
<path fill="none" stroke="black" d="M217.18,-428.1C194.16,-412.33 160.54,-389.3 138.36,-374.11"/>
</g>
<!-- CountryName -->
<g id="node4" class="node">
<title>CountryName</title>
<ellipse fill="#f3b365" stroke="black" cx="242.57" cy="-357.5" rx="55.22" ry="18"/>
<text text-anchor="start" x="205.45" y="-353.47" font-family="Helvetica,sans-Serif" text-decoration="overline" font-size="12.00">CountryName</text>
</g>
<!-- COUNTRY&#45;&#45;CountryName -->
<g id="edge2" class="edge">
<title>COUNTRY&#45;&#45;CountryName</title>
<path fill="none" stroke="black" d="M242.57,-428.31C242.57,-413.16 242.57,-391.18 242.57,-375.95"/>
</g>
<!-- OLYMPIAD -->
<g id="node5" class="node">
<title>OLYMPIAD</title>
<polygon fill="#f3b365" stroke="black" points="638.95,-464.5 562.2,-464.5 562.2,-428.5 638.95,-428.5 638.95,-464.5"/>
<text text-anchor="middle" x="600.57" y="-441.47" font-family="Helvetica,sans-Serif" font-size="12.00">OLYMPIAD</text>
</g>
<!-- OlympiadId -->
<g id="node6" class="node">
<title>OlympiadId</title>
<ellipse fill="#f3b365" stroke="black" cx="504.57" cy="-357.5" rx="46.96" ry="18"/>
<text text-anchor="start" x="474.2" y="-353.47" font-family="Helvetica,sans-Serif" text-decoration="underline" font-size="12.00">OlympiadId</text>
</g>
<!-- OLYMPIAD&#45;&#45;OlympiadId -->
<g id="edge3" class="edge">
<title>OLYMPIAD&#45;&#45;OlympiadId</title>
<path fill="none" stroke="black" d="M581.6,-428.31C564.34,-412.66 539.04,-389.74 522.2,-374.48"/>
</g>
<!-- Number -->
<g id="node7" class="node">
<title>Number</title>
<ellipse fill="#f3b365" stroke="black" cx="605.57" cy="-357.5" rx="35.95" ry="18"/>
<text text-anchor="start" x="584.2" y="-353.47" font-family="Helvetica,sans-Serif" text-decoration="overline" font-size="12.00">Number</text>
</g>
<!-- OLYMPIAD&#45;&#45;Number -->
<g id="edge4" class="edge">
<title>OLYMPIAD&#45;&#45;Number</title>
<path fill="none" stroke="black" d="M601.56,-428.31C602.43,-413.16 603.69,-391.18 604.57,-375.95"/>
</g>
<!-- Webpage -->
<g id="node8" class="node">
<title>Webpage</title>
<ellipse fill="#f3b365" stroke="black" cx="700.57" cy="-357.5" rx="41.45" ry="18"/>
<text text-anchor="start" x="674.7" y="-353.47" font-family="Helvetica,sans-Serif" text-decoration="overline" font-size="12.00">Webpage</text>
</g>
<!-- OLYMPIAD&#45;&#45;Webpage -->
<g id="edge5" class="edge">
<title>OLYMPIAD&#45;&#45;Webpage</title>
<path fill="none" stroke="black" d="M620.33,-428.31C638.43,-412.56 665,-389.45 682.54,-374.19"/>
</g>
<!-- MANAGES -->
<g id="node21" class="node">
<title>MANAGES</title>
<polygon fill="#f3b365" stroke="black" points="841.57,-375.5 775.16,-357.5 841.57,-339.5 907.98,-357.5 841.57,-375.5"/>
<polygon fill="none" stroke="black" points="841.57,-379.64 759.87,-357.5 841.57,-335.36 923.27,-357.5 841.57,-379.64"/>
<text text-anchor="middle" x="841.57" y="-352.47" font-family="Helvetica,sans-Serif" font-size="12.00">MANAGES</text>
</g>
<!-- OLYMPIAD&#45;&#45;MANAGES -->
<g id="edge18" class="edge">
<title>OLYMPIAD&#45;&#45;MANAGES</title>
<path fill="none" stroke="black" d="M639.29,-431.52C685.86,-414.71 763.29,-386.76 807.62,-370.76"/>
<text text-anchor="middle" x="737.32" y="-399.1" font-family="Helvetica,sans-Serif" font-size="12.00">0:M</text>
</g>
<!-- HOSTS -->
<g id="node23" class="node">
<title>HOSTS</title>
<polygon fill="#f3b365" stroke="black" points="377.57,-375.5 327.38,-357.5 377.57,-339.5 427.76,-357.5 377.57,-375.5"/>
<polygon fill="none" stroke="black" points="377.57,-379.75 315.53,-357.5 377.57,-335.25 439.61,-357.5 377.57,-379.75"/>
<text text-anchor="middle" x="377.57" y="-352.47" font-family="Helvetica,sans-Serif" font-size="12.00">HOSTS</text>
</g>
<!-- OLYMPIAD&#45;&#45;HOSTS -->
<g id="edge23" class="edge">
<title>OLYMPIAD&#45;&#45;HOSTS</title>
<path fill="none" stroke="black" d="M561.73,-430.34C517.43,-413.06 446.03,-385.21 406.4,-369.75"/>
<text text-anchor="middle" x="517.95" y="-399.1" font-family="Helvetica,sans-Serif" font-size="12.00">0:N</text>
</g>
<!-- TEAM -->
<g id="node9" class="node">
<title>TEAM</title>
<polygon fill="#f3b365" stroke="black" points="293.57,-669.41 239.57,-669.41 239.57,-633.41 293.57,-633.41 293.57,-669.41"/>
<polygon fill="none" stroke="black" points="297.57,-673.41 235.57,-673.41 235.57,-629.41 297.57,-629.41 297.57,-673.41"/>
<text text-anchor="middle" x="266.57" y="-646.39" font-family="Helvetica,sans-Serif" font-size="12.00">TEAM</text>
</g>
<!-- TeamId -->
<g id="node10" class="node weak">
<title>TeamId</title>
<ellipse fill="#f3b365" stroke="black" cx="89.57" cy="-558.58" rx="33.65" ry="18"/>
<text text-anchor="middle" x="89.57" y="-553.55" font-family="Helvetica,sans-Serif" font-size="12.00">TeamId</text>
</g>
<!-- TEAM&#45;&#45;TeamId -->
<g id="edge6" class="edge">
<title>TEAM&#45;&#45;TeamId</title>
<path fill="none" stroke="black" d="M235.09,-647.15C205.68,-642.86 161.61,-633.12 129.57,-611.41 116.4,-602.49 105.67,-587.82 98.65,-576.36"/>
</g>
<!-- REPRESENTS -->
<g id="node11" class="node">
<title>REPRESENTS</title>
<polygon fill="#f3b365" stroke="black" points="266.57,-576.58 180.04,-558.58 266.57,-540.58 353.1,-558.58 266.57,-576.58"/>
<text text-anchor="middle" x="266.57" y="-553.55" font-family="Helvetica,sans-Serif" font-size="12.00">REPRESENTS</text>
</g>
<!-- TEAM&#45;&#45;REPRESENTS -->
<g id="edge7" class="edge">
<title>TEAM&#45;&#45;REPRESENTS</title>
<path fill="none" stroke="black" d="M265.57,-629.34C265.57,-613.41 265.57,-591.8 265.57,-576.88"/>
<path fill="none" stroke="black" d="M267.57,-629.34C267.57,-613.41 267.57,-591.8 267.57,-576.88"/>
<text text-anchor="middle" x="269.95" y="-600.01" font-family="Helvetica,sans-Serif" font-size="12.00">1</text>
</g>
<!-- COMPETES_IN -->
<g id="node12" class="node">
<title>COMPETES_IN</title>
<polygon fill="#f3b365" stroke="black" points="554.57,-576.58 465.44,-558.58 554.57,-540.58 643.7,-558.58 554.57,-576.58"/>
<polygon fill="none" stroke="black" points="554.57,-580.66 445.24,-558.58 554.57,-536.5 663.9,-558.58 554.57,-580.66"/>
<text text-anchor="middle" x="554.57" y="-553.55" font-family="Helvetica,sans-Serif" font-size="12.00">COMPETES_IN</text>
</g>
<!-- TEAM&#45;&#45;COMPETES_IN -->
<g id="edge9" class="edge">
<title>TEAM&#45;&#45;COMPETES_IN</title>
<path fill="none" stroke="black" d="M297.64,-639.56C349.83,-623.1 454.5,-590.09 512.75,-571.72"/>
<path fill="none" stroke="black" d="M298.24,-641.47C350.43,-625.01 455.11,-592 513.35,-573.63"/>
<text text-anchor="middle" x="431.95" y="-600.01" font-family="Helvetica,sans-Serif" font-size="12.00">1</text>
</g>
<!-- PLAYS -->
<g id="node24" class="node">
<title>PLAYS</title>
<polygon fill="#f3b365" stroke="black" points="93.57,-518.5 46.63,-500.5 93.57,-482.5 140.51,-500.5 93.57,-518.5"/>
<text text-anchor="middle" x="93.57" y="-495.47" font-family="Helvetica,sans-Serif" font-size="12.00">PLAYS</text>
</g>
<!-- TEAM&#45;&#45;PLAYS -->
<g id="edge25" class="edge">
<title>TEAM&#45;&#45;PLAYS</title>
<path fill="none" stroke="black" d="M235.34,-630.43C215.85,-617.32 190.72,-599.22 170.57,-580.66 151.52,-563.12 150.69,-555 132.57,-536.5 124.68,-528.44 115.28,-519.98 107.69,-513.39"/>
<text text-anchor="middle" x="215.95" y="-600.01" font-family="Helvetica,sans-Serif" font-size="12.00">0:N</text>
</g>
<!-- REPRESENTS&#45;&#45;COUNTRY -->
<g id="edge8" class="edge">
<title>REPRESENTS&#45;&#45;COUNTRY</title>
<path fill="none" stroke="black" d="M262.93,-540.86C258.44,-520.29 250.87,-485.54 246.33,-464.74"/>
<text text-anchor="middle" x="266.95" y="-495.47" font-family="Helvetica,sans-Serif" font-size="12.00">0:N</text>
</g>
<!-- COMPETES_IN&#45;&#45;OLYMPIAD -->
<g id="edge10" class="edge">
<title>COMPETES_IN&#45;&#45;OLYMPIAD</title>
<path fill="none" stroke="black" d="M562.79,-537.9C571.48,-517.12 585.03,-484.68 593.33,-464.84"/>
<text text-anchor="middle" x="594.57" y="-495.47" font-family="Helvetica,sans-Serif" font-size="12.00">0:P</text>
</g>
<!-- SPORT -->
<g id="node13" class="node">
<title>SPORT</title>
<polygon fill="#f3b365" stroke="black" points="202.2,-109 144.95,-109 144.95,-73 202.2,-73 202.2,-109"/>
<text text-anchor="middle" x="173.57" y="-85.97" font-family="Helvetica,sans-Serif" font-size="12.00">SPORT</text>
</g>
<!-- SportId -->
<g id="node14" class="node">
<title>SportId</title>
<ellipse fill="#f3b365" stroke="black" cx="173.57" cy="-18" rx="33.19" ry="18"/>
<text text-anchor="start" x="154.45" y="-13.97" font-family="Helvetica,sans-Serif" text-decoration="underline" font-size="12.00">SportId</text>
</g>
<!-- SPORT&#45;&#45;SportId -->
<g id="edge11" class="edge">
<title>SPORT&#45;&#45;SportId</title>
<path fill="none" stroke="black" d="M173.57,-72.81C173.57,-61.65 173.57,-47.16 173.57,-36.03"/>
</g>
<!-- COMPETES_FOR&#45;&#45;TEAM -->
<g id="edge13" class="edge">
<title>COMPETES_FOR&#45;&#45;TEAM</title>
<path fill="none" stroke="black" d="M265.57,-722.02C265.57,-708.2 265.57,-688.67 265.57,-673.82"/>
<path fill="none" stroke="black" d="M267.57,-722.02C267.57,-708.2 267.57,-688.67 267.57,-673.82"/>
<text text-anchor="middle" x="276.32" y="-692.76" font-family="Helvetica,sans-Serif" font-size="12.00">1:M</text>
</g>
<!-- COACHES&#45;&#45;TEAM -->
<g id="edge15" class="edge">
<title>COACHES&#45;&#45;TEAM</title>
<path fill="none" stroke="black" d="M427.72,-729.08C394.66,-713.58 334.26,-685.25 297.4,-667.97"/>
<path fill="none" stroke="black" d="M428.56,-727.27C395.51,-711.77 335.11,-683.44 298.25,-666.16"/>
<text text-anchor="middle" x="379.95" y="-692.76" font-family="Helvetica,sans-Serif" font-size="12.00">1</text>
</g>
<!-- EVENT -->
<g id="node17" class="node">
<title>EVENT</title>
<polygon fill="#f3b365" stroke="black" points="79.2,-282.5 21.95,-282.5 21.95,-246.5 79.2,-246.5 79.2,-282.5"/>
<polygon fill="none" stroke="black" points="83.2,-286.5 17.95,-286.5 17.95,-242.5 83.2,-242.5 83.2,-286.5"/>
<text text-anchor="middle" x="50.57" y="-259.48" font-family="Helvetica,sans-Serif" font-size="12.00">EVENT</text>
</g>
<!-- event_id -->
<g id="node18" class="node weak">
<title>event_id</title>
<ellipse fill="#f3b365" stroke="black" cx="34.57" cy="-175.75" rx="34.57" ry="18"/>
<text text-anchor="middle" x="34.57" y="-170.72" font-family="Helvetica,sans-Serif" font-size="12.00">EventId</text>
</g>
<!-- EVENT&#45;&#45;event_id -->
<g id="edge16" class="edge">
<title>EVENT&#45;&#45;event_id</title>
<path fill="none" stroke="black" d="M46.62,-242.06C43.89,-227.3 40.33,-207.96 37.78,-194.16"/>
</g>
<!-- INSTANCE_OF -->
<g id="node22" class="node">
<title>INSTANCE_OF</title>
<polygon fill="#f3b365" stroke="black" points="173.57,-193.75 87.04,-175.75 173.57,-157.75 260.1,-175.75 173.57,-193.75"/>
<text text-anchor="middle" x="173.57" y="-170.72" font-family="Helvetica,sans-Serif" font-size="12.00">INSTANCE_OF</text>
</g>
<!-- EVENT&#45;&#45;INSTANCE_OF -->
<g id="edge21" class="edge">
<title>EVENT&#45;&#45;INSTANCE_OF</title>
<path fill="none" stroke="black" d="M80.4,-241.24C103.45,-224.98 134.41,-203.15 154.03,-189.31"/>
<path fill="none" stroke="black" d="M81.55,-242.87C104.6,-226.62 135.56,-204.78 155.18,-190.94"/>
<text text-anchor="middle" x="132.95" y="-213.1" font-family="Helvetica,sans-Serif" font-size="12.00">0:N</text>
</g>
<!-- ACCOUNT -->
<g id="node19" class="node">
<title>ACCOUNT</title>
<polygon fill="#f3b365" stroke="black" points="985.95,-464.5 909.2,-464.5 909.2,-428.5 985.95,-428.5 985.95,-464.5"/>
<text text-anchor="middle" x="947.57" y="-441.47" font-family="Helvetica,sans-Serif" font-size="12.00">ACCOUNT</text>
</g>
<!-- account_id -->
<g id="node20" class="node">
<title>account_id</title>
<ellipse fill="#f3b365" stroke="black" cx="983.57" cy="-357.5" rx="42.37" ry="18"/>
<text text-anchor="start" x="956.95" y="-353.47" font-family="Helvetica,sans-Serif" text-decoration="underline" font-size="12.00">AccountId</text>
</g>
<!-- ACCOUNT&#45;&#45;account_id -->
<g id="edge17" class="edge">
<title>ACCOUNT&#45;&#45;account_id</title>
<path fill="none" stroke="black" d="M954.68,-428.31C960.99,-413.06 970.17,-390.89 976.47,-375.65"/>
</g>
<!-- ACCOUNT&#45;&#45;MANAGES -->
<g id="edge19" class="edge">
<title>ACCOUNT&#45;&#45;MANAGES</title>
<path fill="none" stroke="black" d="M926.37,-428.1C907.4,-412.53 879.81,-389.88 861.3,-374.69"/>
<text text-anchor="middle" x="912.95" y="-399.1" font-family="Helvetica,sans-Serif" font-size="12.00">0:N</text>
</g>
<!-- MANAGES&#45;&#45;PARTICIPANT -->
<g id="edge20" class="edge">
<title>MANAGES&#45;&#45;PARTICIPANT</title>
<path fill="none" stroke="black" d="M819.54,-374.75C799.86,-390.2 774.28,-416.1 774.57,-445.5 774.57,-741.16 774.57,-741.16 774.57,-741.16 773.69,-797.59 593.5,-818.63 502.67,-825.72"/>
<path fill="none" stroke="black" d="M818.31,-373.18C798.43,-388.8 772.86,-414.7 772.57,-445.5 772.57,-741.16 772.57,-741.16 772.57,-741.16 773.45,-795.6 593.27,-816.64 502.51,-823.72"/>
<text text-anchor="middle" x="776.95" y="-600.01" font-family="Helvetica,sans-Serif" font-size="12.00">1</text>
</g>
<!-- INSTANCE_OF&#45;&#45;SPORT -->
<g id="edge22" class="edge">
<title>INSTANCE_OF&#45;&#45;SPORT</title>
<path fill="none" stroke="black" d="M173.57,-157.6C173.57,-143.5 173.57,-123.59 173.57,-109.41"/>
<text text-anchor="middle" x="176.95" y="-128.35" font-family="Helvetica,sans-Serif" font-size="12.00">1</text>
</g>
<!-- HOSTS&#45;&#45;EVENT -->
<g id="edge24" class="edge">
<title>HOSTS&#45;&#45;EVENT</title>
<path fill="none" stroke="black" d="M344.81,-347.56C332.74,-343.92 318.9,-339.82 306.3,-336.21 226.37,-313.37 131.89,-288.06 83.12,-275.13"/>
<path fill="none" stroke="black" d="M345.39,-345.64C333.31,-342 319.47,-337.9 306.85,-334.29 226.88,-311.43 132.41,-286.13 83.63,-273.19"/>
<text text-anchor="middle" x="239.95" y="-305.85" font-family="Helvetica,sans-Serif" font-size="12.00">1</text>
</g>
<!-- PLAYS&#45;&#45;EVENT -->
<g id="edge26" class="edge">
<title>PLAYS&#45;&#45;EVENT</title>
<path fill="none" stroke="black" d="M87.05,-484.75C77.6,-462.51 60.45,-418.82 53.57,-379.75 47.93,-347.7 48.28,-309.83 49.27,-286.74"/>
<text text-anchor="middle" x="70.57" y="-399.1" font-family="Helvetica,sans-Serif" font-size="12.00">0:P</text>
</g>
</g>
</svg>
